<svg width="20" height="24" viewBox="0 0 20 24" fill="none" xmlns="http://www.w3.org/2000/svg">
<path d="M8.31794 22L6.53223 13.0714L8.31794 13.9643L9.65723 15.75L8.31794 22ZM11.8894 22L10.5501 15.75L11.8894 13.9643L13.6751 13.0714L11.8894 22ZM14.1215 7.9096C14.1076 8.03516 14.0936 8.16071 14.0657 8.28627C13.982 8.39788 13.9123 8.35603 13.8564 8.52344C13.4937 9.51395 13.3263 10.2812 12.0707 10.2812C10.2711 10.2812 10.7733 8.62109 10.1874 8.62109H10.0199C9.43401 8.62109 9.93624 10.2812 8.13658 10.2812C6.881 10.2812 6.71359 9.51395 6.35087 8.52344C6.29506 8.35603 6.22531 8.39788 6.1416 8.28627C6.1137 8.16071 6.09975 8.03516 6.0858 7.9096C6.09975 7.8817 6.1137 7.85379 6.1416 7.82589C6.26716 7.72824 7.27162 7.71429 7.48089 7.71429C8.27609 7.71429 9.02944 7.82589 9.81069 7.97935C9.90834 8.00725 10.006 8.00725 10.1037 8.00725C10.2013 8.00725 10.299 8.00725 10.3966 7.97935C11.1779 7.82589 11.9312 7.71429 12.7264 7.71429C12.9357 7.71429 13.9402 7.72824 14.0657 7.82589C14.0936 7.85379 14.1076 7.8817 14.1215 7.9096ZM19.9251 20.1724C19.9251 17.6892 19.4926 13.9364 16.9954 12.639L18.1394 9.5H15.1539C15.405 8.77455 15.5027 8.0212 15.4329 7.26786C15.977 7.15625 18.1394 6.70982 18.1394 5.92857C18.1394 5.10547 15.7677 4.65904 15.2097 4.54743C14.9167 3.50112 14.2192 1.91071 13.5077 1.08761C13.2287 0.766741 12.8799 0.571427 12.4474 0.571427C11.6104 0.571427 10.9407 1.43638 10.1037 1.43638C9.2666 1.43638 8.59696 0.571427 7.75991 0.571427C7.32743 0.571427 6.97866 0.766741 6.69964 1.08761C5.98814 1.91071 5.2906 3.50112 4.99763 4.54743C4.43959 4.65904 2.06794 5.10547 2.06794 5.92857C2.06794 6.70982 4.23033 7.15625 4.77441 7.26786C4.76046 7.40737 4.74651 7.56083 4.74651 7.71429C4.74651 8.32812 4.85812 8.92801 5.05343 9.5H2.06794L3.32352 12.5692C0.728655 13.8248 0.282227 17.6473 0.282227 20.1724C0.282227 22.4464 1.77497 23.7857 4.00712 23.7857H16.2002C18.4323 23.7857 19.9251 22.4464 19.9251 20.1724Z" fill="#6D6866"/>
</svg>
