<svg xmlns="http://www.w3.org/2000/svg" viewBox="0 0 35 56.63"><defs><style>.cls-1{fill:#fff;}</style></defs><title>logo</title><g id="Layer_2" data-name="Layer 2"><g id="Layer_1-2" data-name="Layer 1"><path class="cls-1" d="M26.31,42.42V2.65A2.64,2.64,0,0,0,25.53.77,2.61,2.61,0,0,0,23.67,0h0C17.48,0,6.22,1.45.36,10.88A2.54,2.54,0,0,0,0,12.22V53.84c7.14-7.47,17.48-8.75,23.65-8.77A2.66,2.66,0,0,0,26.31,42.42Z"/><path class="cls-1" d="M32.35,9.17H30.43V42.42a6.79,6.79,0,0,1-6.76,6.77c-5.24,0-13.87,1-20,6.82,10.58-2.59,21.72-.91,28.08.54A2.65,2.65,0,0,0,35,54V11.82A2.65,2.65,0,0,0,32.35,9.17Z"/></g></g></svg>