<svg width="28" height="26" viewBox="0 0 28 26" fill="none" xmlns="http://www.w3.org/2000/svg">
<path d="M8.88177 13.0714C8.15632 12.0251 7.75174 10.7695 7.75174 9.5C7.75174 9.19308 7.77965 8.88616 7.8215 8.57924C7.22161 8.7885 6.60777 8.90011 5.96603 8.90011C4.08266 8.90011 2.63177 7.71429 2.3388 7.71429C0.567034 7.71429 0.608887 11.5089 0.608887 12.639C0.608887 14.1875 1.92027 14.8571 3.31536 14.8571H5.18478C6.11949 13.7411 7.43087 13.1133 8.88177 13.0714ZM23.8232 21.9581C23.8232 18.8052 23.0838 13.9643 18.9962 13.9643C18.5218 13.9643 16.7919 15.9035 14.0017 15.9035C11.2116 15.9035 9.48166 13.9643 9.00732 13.9643C4.91971 13.9643 4.18032 18.8052 4.18032 21.9581C4.18032 24.2182 5.67306 25.5714 7.9052 25.5714H20.0983C22.3304 25.5714 23.8232 24.2182 23.8232 21.9581ZM9.53746 4.14286C9.53746 2.17578 7.93311 0.571427 5.96603 0.571427C3.99895 0.571427 2.3946 2.17578 2.3946 4.14286C2.3946 6.10993 3.99895 7.71429 5.96603 7.71429C7.93311 7.71429 9.53746 6.10993 9.53746 4.14286ZM19.3589 9.5C19.3589 6.54241 16.9593 4.14286 14.0017 4.14286C11.0442 4.14286 8.6446 6.54241 8.6446 9.5C8.6446 12.4576 11.0442 14.8571 14.0017 14.8571C16.9593 14.8571 19.3589 12.4576 19.3589 9.5ZM27.3946 12.639C27.3946 11.5089 27.4365 7.71429 25.6647 7.71429C25.3717 7.71429 23.9208 8.90011 22.0375 8.90011C21.3957 8.90011 20.7819 8.7885 20.182 8.57924C20.2238 8.88616 20.2517 9.19308 20.2517 9.5C20.2517 10.7695 19.8472 12.0251 19.1217 13.0714C20.5726 13.1133 21.884 13.7411 22.8187 14.8571H24.6881C26.0832 14.8571 27.3946 14.1875 27.3946 12.639ZM25.6089 4.14286C25.6089 2.17578 24.0045 0.571427 22.0375 0.571427C20.0704 0.571427 18.466 2.17578 18.466 4.14286C18.466 6.10993 20.0704 7.71429 22.0375 7.71429C24.0045 7.71429 25.6089 6.10993 25.6089 4.14286Z" fill="#6D6866"/>
</svg>
