<svg width="30" height="22" viewBox="0 0 30 22" fill="none" xmlns="http://www.w3.org/2000/svg">
<path d="M10.5392 11.0714C13.4968 11.0714 15.8963 8.67187 15.8963 5.71429C15.8963 2.7567 13.4968 0.357142 10.5392 0.357142C7.58161 0.357142 5.18206 2.7567 5.18206 5.71429C5.18206 8.67187 7.58161 11.0714 10.5392 11.0714ZM23.9321 12.8571V7.94643C23.9321 7.70926 23.7228 7.5 23.4856 7.5H20.8071C20.5699 7.5 20.3606 7.70926 20.3606 7.94643V12.8571H15.4499C15.2128 12.8571 15.0035 13.0664 15.0035 13.3036V15.9821C15.0035 16.2193 15.2128 16.4286 15.4499 16.4286H20.3606V21.3393C20.3606 21.5765 20.5699 21.7857 20.8071 21.7857H23.4856C23.7228 21.7857 23.9321 21.5765 23.9321 21.3393V16.4286H28.8428C29.0799 16.4286 29.2892 16.2193 29.2892 15.9821V13.3036C29.2892 13.0664 29.0799 12.8571 28.8428 12.8571H23.9321ZM13.6642 15.9821V13.3036C13.6642 12.327 14.4734 11.5179 15.4499 11.5179H18.561C17.7658 10.625 16.7194 10.1786 15.5336 10.1786C15.3104 10.1786 15.1569 10.2762 14.9895 10.4157C13.6224 11.4621 12.297 12.1177 10.5392 12.1177C8.78139 12.1177 7.45605 11.4621 6.08887 10.4157C5.92146 10.2762 5.768 10.1786 5.54478 10.1786C1.45717 10.1786 0.717773 15.0195 0.717773 18.1724C0.717773 20.4464 2.21052 21.7857 4.44266 21.7857H16.6357C17.4728 21.7857 18.3378 21.5904 19.0213 21.0882V17.7679H15.4499C14.4734 17.7679 13.6642 16.9587 13.6642 15.9821Z" fill="#6D6866"/>
</svg>
